<?xml version="1.0" encoding="utf-8"?>
<!-- Generator: Adobe Illustrator 19.2.0, SVG Export Plug-In . SVG Version: 6.00 Build 0)  -->
<svg version="1.1" id="Layer_1" xmlns="http://www.w3.org/2000/svg" xmlns:xlink="http://www.w3.org/1999/xlink" x="0px" y="0px"
	 viewBox="0 0 559.2 146.1" style="enable-background:new 0 0 559.2 146.1;" xml:space="preserve">
<style type="text/css">
	.st0{fill:#FFFFFF;}
	.st1{opacity:0.6;fill:#FFFFFF;}
</style>
<title>Logo</title>
<g id="_Group_">
	<g id="_Group_2">
		<path id="_Path_" class="st0" d="M353.8,50.2l-2.2-0.4c-7.1-1.2-15.9-2.8-16-8.8c-0.1-1.7,0.6-3.4,1.8-4.6
			c2.6-2.7,7.8-4.2,14.1-4.2h0.3c6.6,0,12.1,1,17.7,5.9l0.7,0.6c0.6,0.5,1.5,0.5,2-0.1l5.1-5.5c0.6-0.6,0.5-1.5-0.1-2.1l-0.8-0.7
			c-6.3-6-14.7-9-24.8-9h-0.3c-9.2,0-17.2,2.7-21.8,7.4c-3.3,3.3-5.1,7.8-5,12.5c0.2,14.8,14.7,17.3,26.3,19.2
			c12.4,2,18.3,4,18.1,9.8c-0.3,8.5-11.9,9.4-16.9,9.4c-8.8,0-16.6-3.6-20.7-9.5l-0.7-0.9c-0.5-0.7-1.4-0.8-2-0.4
			c-0.1,0-0.1,0.1-0.1,0.1l-6,5.4c-0.6,0.5-0.7,1.3-0.3,1.9l0.5,0.7c5.5,8.5,16.5,13.6,29.2,13.6c6.5,0,27.5-1.4,28-19.8
			C380.8,54.7,364.5,52,353.8,50.2z"/>
		<path id="_Compound_Path_" class="st0" d="M190.3,20.8h-1.4c-8.8,0-16.6,3.3-23.2,9.9c-6.6,6.4-10.3,15.2-10.2,24.4v53.6
			c0,0.8,0.7,1.5,1.5,1.5h7.9c0.8,0,1.5-0.7,1.5-1.5V80.3c5.9,5.7,13.8,9,22,9.2h1.4c8.7,0,17.1-3.5,23.1-9.8
			c6.6-6.5,10.3-15.4,10.2-24.7c0.1-8.9-3.3-17.5-9.6-23.8C207.5,24.7,199.1,21,190.3,20.8z M188.9,31.7h1.2
			c6,0.2,11.7,2.9,15.6,7.4c4.2,4.4,6.5,10.4,6.3,16.5c0,6.1-2.5,12-6.9,16.3c-4.2,4.4-10.1,6.8-16.1,6.7
			c-5.9,0.2-11.7-2.3-15.7-6.6c-4.3-4.3-6.7-10.1-6.7-16.2c-0.2-6.4,2.2-12.6,6.7-17.2C177.2,34.1,182.9,31.7,188.9,31.7L188.9,31.7
			z"/>
		<path id="_Path_2" class="st0" d="M288.2,22.3H280c-0.8,0-1.5,0.7-1.5,1.5v36.8c0,10-8.1,18.1-18.1,18.1s-18.1-8.1-18.1-18.1l0,0
			V23.7c0-0.8-0.7-1.5-1.5-1.5h-8.2c-0.8,0-1.5,0.7-1.5,1.5v35.9c0,8.5,2.8,15.7,8.2,21.4c5.5,5.7,13.1,8.8,21,8.6
			c8.4,0,15.4-2.9,20.9-8.6s8.4-12.9,8.4-21.4V23.7C289.7,22.9,289,22.3,288.2,22.3L288.2,22.3z"/>
		<path id="_Path_3" class="st0" d="M302.5,0h8.1c0.8,0,1.5,0.7,1.5,1.5v85.1c0,0.8-0.7,1.5-1.5,1.5h-8.1c-0.8,0-1.5-0.7-1.5-1.5
			V1.5C301,0.7,301.7,0,302.5,0z"/>
		<path id="_Compound_Path_2" class="st0" d="M444.1,31.3c-6.1-6.6-14.6-10.4-23.5-10.6h-1.4c-8.8-0.1-17.2,3.4-23.2,9.8
			c-13.6,13.5-13.7,35.4-0.2,49c0.1,0.1,0.2,0.2,0.3,0.3c6.2,6.1,14.4,9.6,23.1,9.7h0.5c8.5,0.1,16.7-3.3,22.8-9.3v6.4
			c0,0.8,0.7,1.5,1.5,1.5h7.9c0.8,0,1.5-0.7,1.5-1.5V55.1C453.8,46.2,450.4,37.6,444.1,31.3z M420,78.6h-1.2
			c-6-0.2-11.6-2.9-15.6-7.4c-4.2-4.5-6.4-10.5-6.2-16.6c0-6.1,2.4-12,6.8-16.3c4.2-4.4,10.1-6.9,16.2-6.7
			c5.9-0.1,11.6,2.3,15.5,6.7c4.3,4.3,6.7,10.1,6.7,16.2c0.2,6.5-2.3,12.8-6.8,17.3C431.5,76.1,425.9,78.6,420,78.6L420,78.6z"/>
		<path id="_Path_4" class="st0" d="M487.8,22.1h-13V1.6c0-0.8-0.7-1.5-1.5-1.5l0,0h-8.2c-0.8,0-1.5,0.7-1.5,1.5v66.9
			c0,13.9,8.2,20.9,24.4,20.9c0.6,0,1-0.4,1-1v-7.6c0-0.6-0.4-1-1-1c-9,0-13.2-4.1-13.2-12.8V32.6h13c0.8,0,1.5-0.6,1.5-1.4l0,0
			v-7.5C489.3,22.8,488.6,22.2,487.8,22.1z"/>
		<path id="_Compound_Path_3" class="st0" d="M549.8,31.3c-5.9-6.4-14.1-10.3-22.8-10.8c-0.7,0-1.4-0.1-2.1-0.1
			c-8.8,0-16.7,3.3-23.4,10c-6.9,6.6-10.7,15.8-10.4,25.3c0.1,9.2,3.7,17.3,10.6,24.1c6.7,6.5,14.6,9.8,23.4,9.8h0.5
			c7,0,13.8-2.3,19.5-6.3c4.2-3.1,7.7-7.1,10.1-11.6c0.4-0.7,0.8-1.5,1.1-2.3l1.3-3.2c0.2-0.5,0-1.1-0.5-1.3
			c-0.2-0.1-0.3-0.1-0.5-0.1h-8.8c-0.7,0-1.4,0.4-1.7,1.1c-0.6,1.4-1.4,2.6-2.4,3.8c-3.8,4.4-8.9,8.8-17.8,8.9h-0.4
			c-5.7,0.1-11.2-2-15.4-5.8c-4-3.4-6.7-8.2-7.4-13.4h54.6c1.1,0,1.9-0.9,1.9-1.9v-3.9C559.2,45.3,556,37.8,549.8,31.3z M510.5,36.8
			c4.1-3.4,9.3-5.2,14.7-5.1h0.4c5.4,0,10.6,1.9,14.8,5.3c3.7,3.1,6.3,7.3,7.5,12h-45.1C503.9,44.2,506.6,39.9,510.5,36.8z"/>
	</g>
	<g id="_Group_4">
		<path id="_Path_7" class="st0" d="M118,28.6c-3-11.8-12.2-21.1-24-24.3c-9.9-2.5-20.2-3.8-30.4-3.6c-13.9,0-24.1,1.7-31.3,3.7
			C22.1,7.3,13.9,14.7,10,24.5C5.3,36,0,55.6,0,85.2c0,22.4,2.8,38.7,6.1,50.1c0.1,0.4,0.3,0.8,0.4,1.2c-1-3.9,1.3-8.4,12.5-12.2
			c25.5-8.7,58.1-9,60.2-9c4.8-0.5,9.5-1.3,14.2-2.5c11.8-3.1,21.1-12.2,24.2-24c2.5-9.9,3.7-20.2,3.6-30.4
			C121.2,45.5,119.8,35.8,118,28.6z"/>
		<path id="_Path_8" class="st1" d="M6.4,136.5c3,7.7,11.6,11.5,19.3,8.6c2.2-0.8,4.2-2.2,5.7-3.9c10.6-11.7,24.3-25,32.3-25
			c5.2,0,10.3-0.3,15.4-0.8c-2.2,0-34.8-0.7-60.2,8C7.7,127.1,5.4,132.5,6.4,136.5z"/>
	</g>
</g>
</svg>
